<mxfile host="Electron" modified="2024-07-03T14:04:26.001Z" agent="Mozilla/5.0 (Windows NT 10.0; Win64; x64) AppleWebKit/537.36 (KHTML, like Gecko) draw.io/24.5.1 Chrome/124.0.6367.207 Electron/30.0.6 Safari/537.36" etag="me5o1sjpGeHHH3yElnP4" version="24.5.1" type="device" pages="3">
  <diagram name="2pl+2pc" id="OZe0OeOEtncIJ_skkbxo">
    <mxGraphModel dx="512" dy="359" grid="1" gridSize="10" guides="1" tooltips="1" connect="1" arrows="1" fold="1" page="1" pageScale="1" pageWidth="850" pageHeight="1100" math="0" shadow="0">
      <root>
        <mxCell id="0" />
        <mxCell id="1" parent="0" />
        <mxCell id="8TY5W13Z84cwANA7l97v-1" value="&lt;font style=&quot;font-size: 11px;&quot;&gt;&lt;b&gt;cl_commit&lt;br&gt;&lt;span style=&quot;color: rgb(77, 153, 0);&quot;&gt;all servers:&lt;/span&gt;&lt;br&gt;&lt;span style=&quot;color: rgb(77, 153, 0);&quot;&gt;&lt;u&gt;okay&lt;/u&gt;&lt;/span&gt;&lt;/b&gt;&lt;br&gt;&lt;/font&gt;" style="rounded=0;orthogonalLoop=1;jettySize=auto;html=1;exitX=0;exitY=1;exitDx=0;exitDy=0;entryX=1;entryY=0;entryDx=0;entryDy=0;" parent="1" source="8TY5W13Z84cwANA7l97v-3" target="8TY5W13Z84cwANA7l97v-5" edge="1">
          <mxGeometry x="-0.1436" y="-10" relative="1" as="geometry">
            <mxPoint x="123.25126265847098" y="234.14213562373084" as="sourcePoint" />
            <mxPoint x="88" y="270" as="targetPoint" />
            <mxPoint as="offset" />
          </mxGeometry>
        </mxCell>
        <mxCell id="8TY5W13Z84cwANA7l97v-2" value="&lt;font style=&quot;font-size: 11px;&quot;&gt;&lt;b&gt;&lt;font style=&quot;font-size: 11px;&quot;&gt;cl_abort&lt;/font&gt;&lt;br&gt;&lt;span style=&quot;color: rgb(153, 0, 0);&quot;&gt;some servers:&lt;/span&gt;&lt;br&gt;&lt;span style=&quot;color: rgb(153, 0, 0);&quot;&gt;&lt;u&gt;not_okay&lt;/u&gt;&lt;/span&gt;&lt;/b&gt;&lt;/font&gt;" style="edgeStyle=none;rounded=0;orthogonalLoop=1;jettySize=auto;html=1;exitX=1;exitY=1;exitDx=0;exitDy=0;entryX=0;entryY=0;entryDx=0;entryDy=0;" parent="1" source="8TY5W13Z84cwANA7l97v-3" target="8TY5W13Z84cwANA7l97v-7" edge="1">
          <mxGeometry x="-0.1455" y="11" relative="1" as="geometry">
            <mxPoint as="offset" />
            <mxPoint x="292" y="320" as="targetPoint" />
          </mxGeometry>
        </mxCell>
        <mxCell id="8TY5W13Z84cwANA7l97v-3" value="&lt;font style=&quot;font-size: 13px;&quot;&gt;cl_prepared&lt;/font&gt;" style="ellipse;whiteSpace=wrap;html=1;strokeColor=#000000;" parent="1" vertex="1">
          <mxGeometry x="140" y="100" width="80" height="40" as="geometry" />
        </mxCell>
        <mxCell id="8TY5W13Z84cwANA7l97v-4" value="&lt;span style=&quot;&quot;&gt;&lt;b&gt;cl_ready_c&lt;br&gt;&lt;font style=&quot;font-size: 11px;&quot; color=&quot;#4d9900&quot;&gt;all servers:&lt;/font&gt;&lt;br&gt;&lt;font style=&quot;font-size: 11px;&quot; color=&quot;#4d9900&quot;&gt;&lt;u&gt;committed&lt;/u&gt;&lt;/font&gt;&lt;/b&gt;&lt;br&gt;&lt;/span&gt;" style="edgeStyle=orthogonalEdgeStyle;curved=1;rounded=0;orthogonalLoop=1;jettySize=auto;html=1;entryX=0;entryY=0.5;entryDx=0;entryDy=0;exitX=0;exitY=0;exitDx=0;exitDy=0;" parent="1" source="8TY5W13Z84cwANA7l97v-5" target="8TY5W13Z84cwANA7l97v-39" edge="1">
          <mxGeometry x="-0.1155" y="-8" relative="1" as="geometry">
            <Array as="points">
              <mxPoint x="92" y="40" />
            </Array>
            <mxPoint x="15" y="140" as="sourcePoint" />
            <mxPoint as="offset" />
            <mxPoint x="140" y="145" as="targetPoint" />
          </mxGeometry>
        </mxCell>
        <mxCell id="8TY5W13Z84cwANA7l97v-5" value="&lt;font style=&quot;font-size: 13px;&quot; color=&quot;#006600&quot;&gt;cl_committed&lt;/font&gt;" style="ellipse;whiteSpace=wrap;html=1;strokeColor=#00CC00;" parent="1" vertex="1">
          <mxGeometry x="80" y="200" width="80" height="40" as="geometry" />
        </mxCell>
        <mxCell id="8TY5W13Z84cwANA7l97v-6" value="&lt;span style=&quot;&quot;&gt;&lt;b&gt;cl_ready_a&lt;br&gt;&lt;font style=&quot;font-size: 11px;&quot; color=&quot;#990000&quot;&gt;all servers:&lt;/font&gt;&lt;br&gt;&lt;font style=&quot;font-size: 11px;&quot; color=&quot;#990000&quot;&gt;&lt;u&gt;aborted&lt;/u&gt;&lt;/font&gt;&lt;/b&gt;&lt;br&gt;&lt;/span&gt;" style="edgeStyle=orthogonalEdgeStyle;curved=1;rounded=0;orthogonalLoop=1;jettySize=auto;html=1;entryX=1;entryY=0.5;entryDx=0;entryDy=0;exitX=1;exitY=0;exitDx=0;exitDy=0;" parent="1" source="8TY5W13Z84cwANA7l97v-7" target="8TY5W13Z84cwANA7l97v-39" edge="1">
          <mxGeometry x="-0.1407" y="4" relative="1" as="geometry">
            <Array as="points">
              <mxPoint x="264" y="40" />
            </Array>
            <mxPoint x="240" y="150" as="sourcePoint" />
            <mxPoint as="offset" />
            <mxPoint x="210" y="145" as="targetPoint" />
          </mxGeometry>
        </mxCell>
        <mxCell id="8TY5W13Z84cwANA7l97v-7" value="&lt;font style=&quot;font-size: 13px;&quot; color=&quot;#990000&quot;&gt;cl_aborted&lt;/font&gt;" style="ellipse;whiteSpace=wrap;html=1;strokeColor=#FF3333;" parent="1" vertex="1">
          <mxGeometry x="200" y="200" width="75" height="40" as="geometry" />
        </mxCell>
        <mxCell id="NzJOP6q8xYnNIhtqHpdA-2" style="rounded=0;orthogonalLoop=1;jettySize=auto;html=1;exitX=0.5;exitY=1;exitDx=0;exitDy=0;entryX=0.5;entryY=0;entryDx=0;entryDy=0;" parent="1" source="8TY5W13Z84cwANA7l97v-13" target="8TY5W13Z84cwANA7l97v-19" edge="1">
          <mxGeometry relative="1" as="geometry" />
        </mxCell>
        <mxCell id="8TY5W13Z84cwANA7l97v-14" style="edgeStyle=orthogonalEdgeStyle;curved=1;rounded=0;orthogonalLoop=1;jettySize=auto;html=1;exitX=0;exitY=0.5;exitDx=0;exitDy=0;entryX=0;entryY=1;entryDx=0;entryDy=0;" parent="1" source="8TY5W13Z84cwANA7l97v-17" target="8TY5W13Z84cwANA7l97v-17" edge="1">
          <mxGeometry relative="1" as="geometry">
            <mxPoint x="420" y="-5" as="targetPoint" />
          </mxGeometry>
        </mxCell>
        <mxCell id="8TY5W13Z84cwANA7l97v-15" value="" style="edgeStyle=orthogonalEdgeStyle;rounded=0;orthogonalLoop=1;jettySize=auto;html=1;exitX=1;exitY=0.5;exitDx=0;exitDy=0;entryX=0;entryY=0.5;entryDx=0;entryDy=0;" parent="1" source="8TY5W13Z84cwANA7l97v-17" target="8TY5W13Z84cwANA7l97v-13" edge="1">
          <mxGeometry x="-0.3333" y="-10" relative="1" as="geometry">
            <mxPoint x="580" y="-100" as="sourcePoint" />
            <mxPoint x="640" y="10" as="targetPoint" />
            <mxPoint as="offset" />
          </mxGeometry>
        </mxCell>
        <mxCell id="8TY5W13Z84cwANA7l97v-16" value="&lt;font style=&quot;font-size: 11px;&quot;&gt;prepare&lt;br&gt;&lt;u style=&quot;--tw-border-spacing-x: 0; --tw-border-spacing-y: 0; --tw-translate-x: 0; --tw-translate-y: 0; --tw-rotate: 0; --tw-skew-x: 0; --tw-skew-y: 0; --tw-scale-x: 1; --tw-scale-y: 1; --tw-pan-x: ; --tw-pan-y: ; --tw-pinch-zoom: ; --tw-scroll-snap-strictness: proximity; --tw-ordinal: ; --tw-slashed-zero: ; --tw-numeric-figure: ; --tw-numeric-spacing: ; --tw-numeric-fraction: ; --tw-ring-inset: ; --tw-ring-offset-width: 0px; --tw-ring-offset-color: #fff; --tw-ring-color: rgb(59 130 246 / 0.5); --tw-ring-offset-shadow: 0 0 #0000; --tw-ring-shadow: 0 0 #0000; --tw-shadow: 0 0 #0000; --tw-shadow-colored: 0 0 #0000; --tw-blur: ; --tw-brightness: ; --tw-contrast: ; --tw-grayscale: ; --tw-hue-rotate: ; --tw-invert: ; --tw-saturate: ; --tw-sepia: ; --tw-drop-shadow: ; --tw-backdrop-blur: ; --tw-backdrop-brightness: ; --tw-backdrop-contrast: ; --tw-backdrop-grayscale: ; --tw-backdrop-hue-rotate: ; --tw-backdrop-invert: ; --tw-backdrop-opacity: ; --tw-backdrop-saturate: ; --tw-backdrop-sepia: ; border-color: var(--border-color); color: rgb(0, 0, 0); font-weight: 400;&quot;&gt;cl_prepared&lt;/u&gt;&lt;br&gt;&lt;/font&gt;" style="edgeLabel;html=1;align=center;verticalAlign=middle;resizable=0;points=[];fontColor=#333333;fontStyle=1" parent="8TY5W13Z84cwANA7l97v-15" vertex="1" connectable="0">
          <mxGeometry x="-0.1556" y="-3" relative="1" as="geometry">
            <mxPoint x="-1" y="-8" as="offset" />
          </mxGeometry>
        </mxCell>
        <mxCell id="8TY5W13Z84cwANA7l97v-17" value="&lt;font style=&quot;font-size: 13px;&quot;&gt;working&lt;/font&gt;" style="ellipse;whiteSpace=wrap;html=1;" parent="1" vertex="1">
          <mxGeometry x="328" y="20" width="80" height="40" as="geometry" />
        </mxCell>
        <mxCell id="8TY5W13Z84cwANA7l97v-18" value="" style="edgeStyle=none;rounded=0;orthogonalLoop=1;jettySize=auto;html=1;entryX=0.5;entryY=0;entryDx=0;entryDy=0;" parent="1" source="8TY5W13Z84cwANA7l97v-19" target="8TY5W13Z84cwANA7l97v-23" edge="1">
          <mxGeometry x="-0.1765" y="15" relative="1" as="geometry">
            <mxPoint as="offset" />
          </mxGeometry>
        </mxCell>
        <mxCell id="8TY5W13Z84cwANA7l97v-19" value="&lt;font style=&quot;font-size: 13px;&quot; color=&quot;#990000&quot;&gt;not_okay&lt;/font&gt;" style="ellipse;whiteSpace=wrap;html=1;strokeColor=#FF3333;" parent="1" vertex="1">
          <mxGeometry x="508.5" y="109" width="75" height="40" as="geometry" />
        </mxCell>
        <mxCell id="8TY5W13Z84cwANA7l97v-22" value="&lt;font color=&quot;#4d9900&quot; style=&quot;font-size: 13px;&quot;&gt;committed&lt;/font&gt;" style="ellipse;whiteSpace=wrap;html=1;strokeColor=#00CC00;" parent="1" vertex="1">
          <mxGeometry x="328" y="200" width="80" height="40" as="geometry" />
        </mxCell>
        <mxCell id="8TY5W13Z84cwANA7l97v-23" value="&lt;font color=&quot;#990000&quot; style=&quot;font-size: 13px;&quot;&gt;aborted&lt;/font&gt;" style="ellipse;whiteSpace=wrap;html=1;strokeColor=#FF3333;" parent="1" vertex="1">
          <mxGeometry x="511" y="200" width="75" height="40" as="geometry" />
        </mxCell>
        <mxCell id="8TY5W13Z84cwANA7l97v-29" value="" style="rounded=0;orthogonalLoop=1;jettySize=auto;html=1;exitX=0;exitY=1;exitDx=0;exitDy=0;strokeColor=#000000;entryX=0.17;entryY=0.001;entryDx=0;entryDy=0;entryPerimeter=0;edgeStyle=orthogonalEdgeStyle;curved=1;" parent="1" source="8TY5W13Z84cwANA7l97v-13" target="8TY5W13Z84cwANA7l97v-8" edge="1">
          <mxGeometry x="0.0606" y="-13" relative="1" as="geometry">
            <mxPoint x="491.715728752538" y="64.70213562373101" as="sourcePoint" />
            <mxPoint x="342.11" y="120" as="targetPoint" />
            <mxPoint as="offset" />
            <Array as="points">
              <mxPoint x="343" y="64" />
            </Array>
          </mxGeometry>
        </mxCell>
        <mxCell id="8TY5W13Z84cwANA7l97v-30" value="&lt;font&gt;acq_rd_lock&lt;/font&gt;" style="edgeLabel;html=1;align=center;verticalAlign=middle;resizable=0;points=[];fontColor=#333333;fontStyle=1" parent="8TY5W13Z84cwANA7l97v-29" vertex="1" connectable="0">
          <mxGeometry x="0.5039" y="-1" relative="1" as="geometry">
            <mxPoint x="-11" y="23" as="offset" />
          </mxGeometry>
        </mxCell>
        <mxCell id="8TY5W13Z84cwANA7l97v-36" value="&lt;b&gt;&lt;font style=&quot;font-size: 17px;&quot; face=&quot;Times New Roman&quot;&gt;(a)&lt;/font&gt;&lt;/b&gt;" style="text;html=1;align=center;verticalAlign=middle;resizable=0;points=[];autosize=1;strokeColor=none;fillColor=none;" parent="1" vertex="1">
          <mxGeometry x="70" y="10" width="40" height="30" as="geometry" />
        </mxCell>
        <mxCell id="8TY5W13Z84cwANA7l97v-37" value="&lt;b&gt;&lt;font style=&quot;font-size: 17px;&quot; face=&quot;Times New Roman&quot;&gt;(b)&lt;/font&gt;&lt;/b&gt;" style="text;html=1;align=center;verticalAlign=middle;resizable=0;points=[];autosize=1;strokeColor=none;fillColor=none;" parent="1" vertex="1">
          <mxGeometry x="278" y="10" width="40" height="30" as="geometry" />
        </mxCell>
        <mxCell id="8TY5W13Z84cwANA7l97v-38" value="&lt;b&gt;user_commit&lt;/b&gt;" style="edgeStyle=orthogonalEdgeStyle;rounded=0;orthogonalLoop=1;jettySize=auto;html=1;exitX=0.5;exitY=1;exitDx=0;exitDy=0;entryX=0.5;entryY=0;entryDx=0;entryDy=0;" parent="1" source="8TY5W13Z84cwANA7l97v-39" target="8TY5W13Z84cwANA7l97v-3" edge="1">
          <mxGeometry x="-0.3333" y="5" relative="1" as="geometry">
            <mxPoint x="175" y="210" as="targetPoint" />
            <mxPoint as="offset" />
          </mxGeometry>
        </mxCell>
        <mxCell id="8TY5W13Z84cwANA7l97v-39" value="&lt;font style=&quot;font-size: 13px;&quot;&gt;cl_init&lt;/font&gt;" style="ellipse;whiteSpace=wrap;html=1;strokeColor=#000000;" parent="1" vertex="1">
          <mxGeometry x="140" y="20" width="80" height="40" as="geometry" />
        </mxCell>
        <mxCell id="nHaowIT6lRuUAAHY8w_s-10" style="rounded=0;orthogonalLoop=1;jettySize=auto;html=1;entryX=0;entryY=0;entryDx=0;entryDy=0;exitX=0.322;exitY=0.667;exitDx=0;exitDy=0;exitPerimeter=0;edgeStyle=orthogonalEdgeStyle;curved=1;" parent="1" source="nHaowIT6lRuUAAHY8w_s-5" target="8TY5W13Z84cwANA7l97v-22" edge="1">
          <mxGeometry relative="1" as="geometry">
            <mxPoint x="360" y="180" as="sourcePoint" />
            <mxPoint x="368" y="206" as="targetPoint" />
            <Array as="points">
              <mxPoint x="405" y="180" />
              <mxPoint x="340" y="180" />
            </Array>
          </mxGeometry>
        </mxCell>
        <mxCell id="7lvJ5FvS7yNrA_3ljpex-1" value="&lt;p style=&quot;line-height: 100%; margin-top: 0px; margin-bottom: 0px;&quot;&gt;&lt;font color=&quot;#333333&quot;&gt;&lt;b&gt;commit&lt;/b&gt;&lt;/font&gt;&lt;br&gt;&lt;font style=&quot;text-decoration-line: underline;&quot; color=&quot;#66cc00&quot;&gt;cl_committed&lt;/font&gt;&lt;/p&gt;" style="edgeLabel;html=1;align=center;verticalAlign=middle;resizable=0;points=[];" parent="nHaowIT6lRuUAAHY8w_s-10" vertex="1" connectable="0">
          <mxGeometry x="-0.0991" y="5" relative="1" as="geometry">
            <mxPoint x="-13" y="-10" as="offset" />
          </mxGeometry>
        </mxCell>
        <mxCell id="nHaowIT6lRuUAAHY8w_s-11" style="rounded=0;orthogonalLoop=1;jettySize=auto;html=1;entryX=0.361;entryY=0.015;entryDx=0;entryDy=0;exitX=0.544;exitY=0.667;exitDx=0;exitDy=0;exitPerimeter=0;edgeStyle=orthogonalEdgeStyle;curved=1;entryPerimeter=0;" parent="1" source="nHaowIT6lRuUAAHY8w_s-5" target="8TY5W13Z84cwANA7l97v-23" edge="1">
          <mxGeometry relative="1" as="geometry">
            <mxPoint x="419" y="183.21" as="sourcePoint" />
            <mxPoint x="471.0040750553894" y="210.84689723455585" as="targetPoint" />
            <Array as="points">
              <mxPoint x="425" y="180" />
              <mxPoint x="538" y="180" />
            </Array>
          </mxGeometry>
        </mxCell>
        <mxCell id="wvYwN-pTzXuPyj0hbjaU-2" value="&lt;i style=&quot;color: rgb(0, 0, 255);&quot;&gt;&lt;b&gt;Lock acquired&lt;/b&gt;&lt;/i&gt;" style="rounded=0;orthogonalLoop=1;jettySize=auto;html=1;exitX=0;exitY=1;exitDx=0;exitDy=0;strokeColor=#000000;entryX=0.5;entryY=0;entryDx=0;entryDy=0;fillColor=#f5f5f5;edgeStyle=orthogonalEdgeStyle;curved=1;" parent="1" source="8TY5W13Z84cwANA7l97v-13" target="8TY5W13Z84cwANA7l97v-8" edge="1">
          <mxGeometry x="0.0516" relative="1" as="geometry">
            <mxPoint x="492" y="64" as="sourcePoint" />
            <mxPoint x="405" y="120" as="targetPoint" />
            <mxPoint as="offset" />
            <Array as="points">
              <mxPoint x="518" y="64" />
              <mxPoint x="406" y="64" />
            </Array>
          </mxGeometry>
        </mxCell>
        <mxCell id="wvYwN-pTzXuPyj0hbjaU-3" value="&lt;font&gt;acq_wr_lock&lt;/font&gt;" style="edgeLabel;html=1;align=center;verticalAlign=middle;resizable=0;points=[];fontColor=#333333;fontStyle=1" parent="wvYwN-pTzXuPyj0hbjaU-2" vertex="1" connectable="0">
          <mxGeometry x="0.3524" y="-2" relative="1" as="geometry">
            <mxPoint y="24" as="offset" />
          </mxGeometry>
        </mxCell>
        <mxCell id="7lvJ5FvS7yNrA_3ljpex-2" value="" style="group" parent="1" vertex="1" connectable="0">
          <mxGeometry x="311" y="109" width="190" height="71" as="geometry" />
        </mxCell>
        <mxCell id="nHaowIT6lRuUAAHY8w_s-4" value="" style="group" parent="7lvJ5FvS7yNrA_3ljpex-2" vertex="1" connectable="0">
          <mxGeometry width="190" height="40" as="geometry" />
        </mxCell>
        <mxCell id="8TY5W13Z84cwANA7l97v-8" value="&lt;font style=&quot;font-size: 13px;&quot;&gt;&amp;nbsp;read_lock&amp;nbsp; write_lock&amp;nbsp; &amp;nbsp;no_lock&amp;nbsp;&lt;/font&gt;" style="rounded=1;whiteSpace=wrap;html=1;" parent="nHaowIT6lRuUAAHY8w_s-4" vertex="1">
          <mxGeometry width="190" height="40" as="geometry" />
        </mxCell>
        <mxCell id="nHaowIT6lRuUAAHY8w_s-2" value="" style="endArrow=none;dashed=1;html=1;rounded=0;exitX=0.333;exitY=0.991;exitDx=0;exitDy=0;exitPerimeter=0;" parent="nHaowIT6lRuUAAHY8w_s-4" edge="1">
          <mxGeometry width="50" height="50" relative="1" as="geometry">
            <mxPoint x="66.54777777777771" y="39.639999999999986" as="sourcePoint" />
            <mxPoint x="66.61111111111113" as="targetPoint" />
          </mxGeometry>
        </mxCell>
        <mxCell id="nHaowIT6lRuUAAHY8w_s-3" value="" style="endArrow=none;dashed=1;html=1;rounded=0;exitX=0.333;exitY=0.991;exitDx=0;exitDy=0;exitPerimeter=0;" parent="nHaowIT6lRuUAAHY8w_s-4" edge="1">
          <mxGeometry width="50" height="50" relative="1" as="geometry">
            <mxPoint x="134.11111111111114" y="40" as="sourcePoint" />
            <mxPoint x="134.11111111111114" as="targetPoint" />
          </mxGeometry>
        </mxCell>
        <mxCell id="nHaowIT6lRuUAAHY8w_s-5" value="&lt;font style=&quot;font-size: 12px;&quot;&gt;&lt;b style=&quot;&quot;&gt;okay states&lt;/b&gt;&lt;/font&gt;" style="text;html=1;align=center;verticalAlign=middle;resizable=0;points=[];autosize=1;strokeColor=none;fillColor=none;" parent="7lvJ5FvS7yNrA_3ljpex-2" vertex="1">
          <mxGeometry x="65" y="41" width="90" height="30" as="geometry" />
        </mxCell>
        <mxCell id="nHaowIT6lRuUAAHY8w_s-7" value="" style="verticalLabelPosition=bottom;shadow=0;dashed=0;align=center;html=1;verticalAlign=top;strokeWidth=1;shape=mxgraph.mockup.markup.curlyBrace;whiteSpace=wrap;rotation=-180;" parent="7lvJ5FvS7yNrA_3ljpex-2" vertex="1">
          <mxGeometry y="40" width="188.5" height="10" as="geometry" />
        </mxCell>
        <mxCell id="2DOqVF7_cH0bFSpLswS7-3" value="&lt;p style=&quot;line-height: 100%; margin-top: 0px; margin-bottom: 0px;&quot;&gt;&lt;span style=&quot;background-color: rgb(255, 255, 255);&quot;&gt;&lt;font style=&quot;font-size: 11px;&quot; color=&quot;#333333&quot;&gt;&lt;b&gt;abort&lt;/b&gt;&lt;/font&gt;&lt;br style=&quot;font-size: 11px;&quot;&gt;&lt;font style=&quot;font-size: 11px;&quot; color=&quot;#990000&quot;&gt;&lt;u&gt;cl_aborted&lt;/u&gt;&lt;/font&gt;&lt;/span&gt;&lt;/p&gt;" style="text;html=1;align=center;verticalAlign=middle;resizable=0;points=[];autosize=1;strokeColor=none;fillColor=none;" parent="1" vertex="1">
          <mxGeometry x="500" y="152" width="70" height="40" as="geometry" />
        </mxCell>
        <mxCell id="2DOqVF7_cH0bFSpLswS7-4" value="&lt;i style=&quot;forced-color-adjust: none; color: rgb(0, 0, 255); font-family: Helvetica; font-size: 11px; font-variant-ligatures: normal; font-variant-caps: normal; font-weight: 400; letter-spacing: normal; orphans: 2; text-align: center; text-indent: 0px; text-transform: none; widows: 2; word-spacing: 0px; -webkit-text-stroke-width: 0px; white-space: nowrap; background-color: rgb(255, 255, 255); text-decoration-thickness: initial; text-decoration-style: initial; text-decoration-color: initial;&quot;&gt;&lt;b style=&quot;forced-color-adjust: none;&quot;&gt;Lock released&lt;/b&gt;&lt;/i&gt;" style="text;whiteSpace=wrap;html=1;" parent="1" vertex="1">
          <mxGeometry x="409" y="180" width="79" height="20" as="geometry" />
        </mxCell>
        <mxCell id="NzJOP6q8xYnNIhtqHpdA-3" value="&lt;p style=&quot;line-height: 90%;&quot;&gt;&lt;/p&gt;&lt;div style=&quot;text-align: justify; line-height: 80%;&quot;&gt;&lt;i style=&quot;text-wrap: nowrap; color: rgb(0, 0, 255); font-size: 11px; text-align: center; background-color: rgb(255, 255, 255);&quot;&gt;&lt;b&gt;Lock&lt;/b&gt;&lt;/i&gt;&lt;/div&gt;&lt;div style=&quot;text-align: justify; line-height: 80%;&quot;&gt;&lt;i style=&quot;text-wrap: nowrap; color: rgb(0, 0, 255); font-size: 11px; text-align: center; background-color: rgb(255, 255, 255);&quot;&gt;&lt;b&gt;unavailable&lt;/b&gt;&lt;/i&gt;&lt;/div&gt;&lt;p&gt;&lt;/p&gt;" style="text;whiteSpace=wrap;html=1;" parent="1" vertex="1">
          <mxGeometry x="523" y="45" width="63" height="40" as="geometry" />
        </mxCell>
        <mxCell id="8TY5W13Z84cwANA7l97v-13" value="&lt;font style=&quot;font-size: 13px;&quot;&gt;prepared&lt;/font&gt;" style="ellipse;whiteSpace=wrap;html=1;" parent="1" vertex="1">
          <mxGeometry x="506" y="20" width="80" height="40" as="geometry" />
        </mxCell>
        <mxCell id="NzJOP6q8xYnNIhtqHpdA-4" value="&lt;p style=&quot;line-height: 100%; padding-bottom: 0px; margin-top: 0px; margin-bottom: 0px;&quot;&gt;&lt;font style=&quot;font-size: 11px;&quot;&gt;&lt;b style=&quot;background-color: rgb(255, 255, 255);&quot;&gt;nok&lt;/b&gt;&lt;/font&gt;&lt;/p&gt;" style="text;html=1;align=center;verticalAlign=middle;resizable=0;points=[];autosize=1;strokeColor=none;fillColor=none;" parent="1" vertex="1">
          <mxGeometry x="525" y="76" width="40" height="30" as="geometry" />
        </mxCell>
        <mxCell id="NzJOP6q8xYnNIhtqHpdA-11" value="" style="rounded=0;orthogonalLoop=1;jettySize=auto;html=1;exitX=0;exitY=1;exitDx=0;exitDy=0;strokeColor=#000000;entryX=0.852;entryY=-0.002;entryDx=0;entryDy=0;entryPerimeter=0;edgeStyle=orthogonalEdgeStyle;curved=1;" parent="1" source="8TY5W13Z84cwANA7l97v-13" target="8TY5W13Z84cwANA7l97v-8" edge="1">
          <mxGeometry x="0.0606" y="-13" relative="1" as="geometry">
            <mxPoint x="528" y="64" as="sourcePoint" />
            <mxPoint x="353" y="119" as="targetPoint" />
            <mxPoint as="offset" />
            <Array as="points">
              <mxPoint x="518" y="70" />
              <mxPoint x="473" y="70" />
              <mxPoint x="473" y="109" />
            </Array>
          </mxGeometry>
        </mxCell>
        <mxCell id="NzJOP6q8xYnNIhtqHpdA-12" value="&lt;font&gt;acq_no_lock&lt;/font&gt;" style="edgeLabel;html=1;align=center;verticalAlign=middle;resizable=0;points=[];fontColor=#333333;fontStyle=1" parent="NzJOP6q8xYnNIhtqHpdA-11" vertex="1" connectable="0">
          <mxGeometry x="0.5039" y="-1" relative="1" as="geometry">
            <mxPoint x="14" y="2" as="offset" />
          </mxGeometry>
        </mxCell>
      </root>
    </mxGraphModel>
  </diagram>
  <diagram id="Z_wweCAoJq6Z9FV5g_cH" name="ep+">
    <mxGraphModel dx="794" dy="557" grid="1" gridSize="10" guides="1" tooltips="1" connect="1" arrows="1" fold="1" page="1" pageScale="1" pageWidth="850" pageHeight="1100" math="0" shadow="0">
      <root>
        <mxCell id="0" />
        <mxCell id="1" parent="0" />
        <mxCell id="raIuA8PvxwPbPQZz9bVx-1" style="edgeStyle=orthogonalEdgeStyle;rounded=0;orthogonalLoop=1;jettySize=auto;html=1;exitX=0;exitY=1;exitDx=0;exitDy=0;entryX=0.5;entryY=0;entryDx=0;entryDy=0;curved=1;" parent="1" source="raIuA8PvxwPbPQZz9bVx-4" target="raIuA8PvxwPbPQZz9bVx-11" edge="1">
          <mxGeometry relative="1" as="geometry">
            <mxPoint x="216.31181322690895" y="110.00051394431827" as="sourcePoint" />
            <Array as="points">
              <mxPoint x="155" y="119" />
            </Array>
            <mxPoint x="183.28427124746185" y="176.69786437626905" as="targetPoint" />
          </mxGeometry>
        </mxCell>
        <mxCell id="raIuA8PvxwPbPQZz9bVx-2" value="&lt;b&gt;&lt;font color=&quot;#000000&quot;&gt;cl_read_invoke&lt;/font&gt;&lt;/b&gt;" style="edgeLabel;html=1;align=center;verticalAlign=middle;resizable=0;points=[];fontSize=11;fontColor=#CC0000;" parent="raIuA8PvxwPbPQZz9bVx-1" vertex="1" connectable="0">
          <mxGeometry x="0.3182" y="-8" relative="1" as="geometry">
            <mxPoint x="27" y="7" as="offset" />
          </mxGeometry>
        </mxCell>
        <mxCell id="raIuA8PvxwPbPQZz9bVx-12" value="&lt;font color=&quot;#000000&quot;&gt;&lt;b style=&quot;&quot;&gt;cl_read&lt;/b&gt;&lt;br&gt;&lt;u&gt;server: Reg&lt;/u&gt;&lt;br&gt;&lt;/font&gt;" style="edgeStyle=orthogonalEdgeStyle;curved=1;rounded=0;orthogonalLoop=1;jettySize=auto;html=1;entryX=0;entryY=1;entryDx=0;entryDy=0;fontSize=11;fontColor=#CC0000;exitX=0.5;exitY=1;exitDx=0;exitDy=0;" parent="1" source="raIuA8PvxwPbPQZz9bVx-11" target="raIuA8PvxwPbPQZz9bVx-11" edge="1">
          <mxGeometry x="-0.1056" y="-10" relative="1" as="geometry">
            <Array as="points">
              <mxPoint x="155" y="270" />
              <mxPoint x="127" y="270" />
              <mxPoint x="127" y="214" />
            </Array>
            <mxPoint as="offset" />
            <mxPoint x="75" y="250" as="sourcePoint" />
          </mxGeometry>
        </mxCell>
        <mxCell id="raIuA8PvxwPbPQZz9bVx-3" value="&lt;b style=&quot;&quot;&gt;cl_write_invoke&lt;/b&gt;" style="edgeStyle=orthogonalEdgeStyle;curved=1;rounded=0;orthogonalLoop=1;jettySize=auto;html=1;exitX=1;exitY=1;exitDx=0;exitDy=0;entryX=0.5;entryY=0;entryDx=0;entryDy=0;" parent="1" source="raIuA8PvxwPbPQZz9bVx-4" target="raIuA8PvxwPbPQZz9bVx-6" edge="1">
          <mxGeometry x="0.4778" y="21" relative="1" as="geometry">
            <mxPoint as="offset" />
            <Array as="points">
              <mxPoint x="244" y="119" />
            </Array>
          </mxGeometry>
        </mxCell>
        <mxCell id="raIuA8PvxwPbPQZz9bVx-4" value="Idle" style="ellipse;whiteSpace=wrap;html=1;" parent="1" vertex="1">
          <mxGeometry x="162" y="85" width="77" height="40" as="geometry" />
        </mxCell>
        <mxCell id="raIuA8PvxwPbPQZz9bVx-5" value="&lt;span style=&quot;font-family: Helvetica; font-size: 11px; font-style: normal; font-variant-ligatures: normal; font-variant-caps: normal; letter-spacing: normal; orphans: 2; text-align: center; text-indent: 0px; text-transform: none; widows: 2; word-spacing: 0px; -webkit-text-stroke-width: 0px; text-decoration-thickness: initial; text-decoration-style: initial; text-decoration-color: initial; float: none; display: inline !important;&quot;&gt;&lt;font style=&quot;&quot; color=&quot;#000000&quot;&gt;&lt;b style=&quot;&quot;&gt;cl_write_commit&lt;br&gt;&lt;/b&gt;&lt;/font&gt;&lt;span style=&quot;--tw-border-spacing-x: 0; --tw-border-spacing-y: 0; --tw-translate-x: 0; --tw-translate-y: 0; --tw-rotate: 0; --tw-skew-x: 0; --tw-skew-y: 0; --tw-scale-x: 1; --tw-scale-y: 1; --tw-pan-x: ; --tw-pan-y: ; --tw-pinch-zoom: ; --tw-scroll-snap-strictness: proximity; --tw-ordinal: ; --tw-slashed-zero: ; --tw-numeric-figure: ; --tw-numeric-spacing: ; --tw-numeric-fraction: ; --tw-ring-inset: ; --tw-ring-offset-width: 0px; --tw-ring-offset-color: #fff; --tw-ring-color: rgb(59 130 246 / 0.5); --tw-ring-offset-shadow: 0 0 #0000; --tw-ring-shadow: 0 0 #0000; --tw-shadow: 0 0 #0000; --tw-shadow-colored: 0 0 #0000; --tw-blur: ; --tw-brightness: ; --tw-contrast: ; --tw-grayscale: ; --tw-hue-rotate: ; --tw-invert: ; --tw-saturate: ; --tw-sepia: ; --tw-drop-shadow: ; --tw-backdrop-blur: ; --tw-backdrop-brightness: ; --tw-backdrop-contrast: ; --tw-backdrop-grayscale: ; --tw-backdrop-hue-rotate: ; --tw-backdrop-invert: ; --tw-backdrop-opacity: ; --tw-backdrop-saturate: ; --tw-backdrop-sepia: ; border-color: var(--border-color);&quot;&gt;&lt;font color=&quot;#000000&quot; style=&quot;--tw-border-spacing-x: 0; --tw-border-spacing-y: 0; --tw-translate-x: 0; --tw-translate-y: 0; --tw-rotate: 0; --tw-skew-x: 0; --tw-skew-y: 0; --tw-scale-x: 1; --tw-scale-y: 1; --tw-pan-x: ; --tw-pan-y: ; --tw-pinch-zoom: ; --tw-scroll-snap-strictness: proximity; --tw-ordinal: ; --tw-slashed-zero: ; --tw-numeric-figure: ; --tw-numeric-spacing: ; --tw-numeric-fraction: ; --tw-ring-inset: ; --tw-ring-offset-width: 0px; --tw-ring-offset-color: #fff; --tw-ring-color: rgb(59 130 246 / 0.5); --tw-ring-offset-shadow: 0 0 #0000; --tw-ring-shadow: 0 0 #0000; --tw-shadow: 0 0 #0000; --tw-shadow-colored: 0 0 #0000; --tw-blur: ; --tw-brightness: ; --tw-contrast: ; --tw-grayscale: ; --tw-hue-rotate: ; --tw-invert: ; --tw-saturate: ; --tw-sepia: ; --tw-drop-shadow: ; --tw-backdrop-blur: ; --tw-backdrop-brightness: ; --tw-backdrop-contrast: ; --tw-backdrop-grayscale: ; --tw-backdrop-hue-rotate: ; --tw-backdrop-invert: ; --tw-backdrop-opacity: ; --tw-backdrop-saturate: ; --tw-backdrop-sepia: ; border-color: var(--border-color);&quot;&gt;&lt;span style=&quot;--tw-border-spacing-x: 0; --tw-border-spacing-y: 0; --tw-translate-x: 0; --tw-translate-y: 0; --tw-rotate: 0; --tw-skew-x: 0; --tw-skew-y: 0; --tw-scale-x: 1; --tw-scale-y: 1; --tw-pan-x: ; --tw-pan-y: ; --tw-pinch-zoom: ; --tw-scroll-snap-strictness: proximity; --tw-ordinal: ; --tw-slashed-zero: ; --tw-numeric-figure: ; --tw-numeric-spacing: ; --tw-numeric-fraction: ; --tw-ring-inset: ; --tw-ring-offset-width: 0px; --tw-ring-offset-color: #fff; --tw-ring-color: rgb(59 130 246 / 0.5); --tw-ring-offset-shadow: 0 0 #0000; --tw-ring-shadow: 0 0 #0000; --tw-shadow: 0 0 #0000; --tw-shadow-colored: 0 0 #0000; --tw-blur: ; --tw-brightness: ; --tw-contrast: ; --tw-grayscale: ; --tw-hue-rotate: ; --tw-invert: ; --tw-saturate: ; --tw-sepia: ; --tw-drop-shadow: ; --tw-backdrop-blur: ; --tw-backdrop-brightness: ; --tw-backdrop-contrast: ; --tw-backdrop-grayscale: ; --tw-backdrop-hue-rotate: ; --tw-backdrop-invert: ; --tw-backdrop-opacity: ; --tw-backdrop-saturate: ; --tw-backdrop-sepia: ; border-color: var(--border-color);&quot;&gt;&lt;u style=&quot;&quot;&gt;all servers: Prepared&lt;/u&gt;&lt;/span&gt;&lt;/font&gt;&lt;/span&gt;&lt;font style=&quot;background-color: rgb(248, 249, 250);&quot; color=&quot;#000000&quot;&gt;&lt;b&gt;&lt;br&gt;&lt;/b&gt;&lt;/font&gt;&lt;/span&gt;" style="edgeStyle=orthogonalEdgeStyle;curved=1;rounded=0;orthogonalLoop=1;jettySize=auto;html=1;exitX=0.5;exitY=1;exitDx=0;exitDy=0;entryX=0.5;entryY=0;entryDx=0;entryDy=0;fontSize=11;fontColor=#CC0000;" parent="1" source="raIuA8PvxwPbPQZz9bVx-6" target="raIuA8PvxwPbPQZz9bVx-8" edge="1">
          <mxGeometry x="-0.1111" y="20" relative="1" as="geometry">
            <mxPoint as="offset" />
          </mxGeometry>
        </mxCell>
        <mxCell id="raIuA8PvxwPbPQZz9bVx-6" value="WtxnPrep" style="ellipse;whiteSpace=wrap;html=1;strokeColor=default;" parent="1" vertex="1">
          <mxGeometry x="205" y="180" width="77" height="40" as="geometry" />
        </mxCell>
        <mxCell id="raIuA8PvxwPbPQZz9bVx-7" value="&lt;b style=&quot;&quot;&gt;cl_write_done&lt;/b&gt;&lt;br&gt;&lt;u style=&quot;color: rgb(77, 153, 0);&quot;&gt;all servers:&lt;/u&gt;&lt;br&gt;&lt;u style=&quot;color: rgb(77, 153, 0);&quot;&gt;Committed&lt;/u&gt;" style="edgeStyle=orthogonalEdgeStyle;curved=1;rounded=0;orthogonalLoop=1;jettySize=auto;html=1;exitX=1;exitY=0.5;exitDx=0;exitDy=0;entryX=1;entryY=0.5;entryDx=0;entryDy=0;" parent="1" source="raIuA8PvxwPbPQZz9bVx-8" target="raIuA8PvxwPbPQZz9bVx-4" edge="1">
          <mxGeometry x="-0.1075" relative="1" as="geometry">
            <Array as="points">
              <mxPoint x="324" y="285" />
              <mxPoint x="324" y="105" />
            </Array>
            <mxPoint as="offset" />
          </mxGeometry>
        </mxCell>
        <mxCell id="raIuA8PvxwPbPQZz9bVx-8" value="&lt;font color=&quot;#006600&quot;&gt;WtxnCommit&lt;/font&gt;" style="ellipse;whiteSpace=wrap;html=1;strokeColor=#00CC00;" parent="1" vertex="1">
          <mxGeometry x="205" y="265" width="77" height="40" as="geometry" />
        </mxCell>
        <mxCell id="raIuA8PvxwPbPQZz9bVx-9" style="edgeStyle=orthogonalEdgeStyle;rounded=0;orthogonalLoop=1;jettySize=auto;html=1;exitX=0;exitY=0;exitDx=0;exitDy=0;entryX=0;entryY=0.5;entryDx=0;entryDy=0;curved=1;" parent="1" source="raIuA8PvxwPbPQZz9bVx-11" target="raIuA8PvxwPbPQZz9bVx-4" edge="1">
          <mxGeometry relative="1" as="geometry">
            <Array as="points">
              <mxPoint x="127" y="105" />
            </Array>
          </mxGeometry>
        </mxCell>
        <mxCell id="raIuA8PvxwPbPQZz9bVx-10" value="&lt;b&gt;cl_read_done&lt;/b&gt;&lt;br&gt;&lt;u&gt;all keys read&lt;/u&gt;" style="edgeLabel;html=1;align=center;verticalAlign=middle;resizable=0;points=[];" parent="raIuA8PvxwPbPQZz9bVx-9" vertex="1" connectable="0">
          <mxGeometry x="-0.0345" y="-12" relative="1" as="geometry">
            <mxPoint x="-24" y="-5" as="offset" />
          </mxGeometry>
        </mxCell>
        <mxCell id="raIuA8PvxwPbPQZz9bVx-11" value="RtxnInProg" style="ellipse;whiteSpace=wrap;html=1;strokeColor=default;" parent="1" vertex="1">
          <mxGeometry x="115" y="180" width="80" height="40" as="geometry" />
        </mxCell>
        <mxCell id="raIuA8PvxwPbPQZz9bVx-13" value="&lt;b&gt;register_read&lt;/b&gt;&lt;br&gt;&lt;u&gt;client: RtxnInProg&lt;/u&gt;" style="edgeStyle=orthogonalEdgeStyle;curved=1;rounded=0;orthogonalLoop=1;jettySize=auto;html=1;exitX=0;exitY=1;exitDx=0;exitDy=0;entryX=0.5;entryY=0;entryDx=0;entryDy=0;" parent="1" source="raIuA8PvxwPbPQZz9bVx-14" target="raIuA8PvxwPbPQZz9bVx-16" edge="1">
          <mxGeometry x="0.1852" y="-8" relative="1" as="geometry">
            <mxPoint x="1" as="offset" />
            <Array as="points">
              <mxPoint x="426" y="119" />
              <mxPoint x="426" y="180" />
            </Array>
          </mxGeometry>
        </mxCell>
        <mxCell id="raIuA8PvxwPbPQZz9bVx-14" value="No_Ver" style="ellipse;whiteSpace=wrap;html=1;" parent="1" vertex="1">
          <mxGeometry x="431" y="85" width="77" height="40" as="geometry" />
        </mxCell>
        <mxCell id="raIuA8PvxwPbPQZz9bVx-15" value="&lt;span style=&quot;font-family: Helvetica; font-size: 11px; font-style: normal; font-variant-ligatures: normal; font-variant-caps: normal; letter-spacing: normal; orphans: 2; text-align: center; text-indent: 0px; text-transform: none; widows: 2; word-spacing: 0px; -webkit-text-stroke-width: 0px; text-decoration-thickness: initial; text-decoration-style: initial; text-decoration-color: initial; float: none; display: inline !important;&quot;&gt;&lt;font style=&quot;&quot; color=&quot;#000000&quot;&gt;&lt;b style=&quot;&quot;&gt;commit_write&lt;/b&gt;&lt;br&gt;&lt;u style=&quot;&quot;&gt;client: WtxnCommit&lt;/u&gt;&lt;br&gt;&lt;/font&gt;&lt;/span&gt;" style="edgeStyle=orthogonalEdgeStyle;curved=1;rounded=0;orthogonalLoop=1;jettySize=auto;html=1;exitX=0.5;exitY=1;exitDx=0;exitDy=0;entryX=0.5;entryY=0;entryDx=0;entryDy=0;fontSize=11;fontColor=#CC0000;" parent="1" source="Em1KcYujY5I7i_vQvYqN-1" target="raIuA8PvxwPbPQZz9bVx-17" edge="1">
          <mxGeometry x="-0.1111" y="-7" relative="1" as="geometry">
            <mxPoint as="offset" />
          </mxGeometry>
        </mxCell>
        <mxCell id="raIuA8PvxwPbPQZz9bVx-16" value="Reg" style="ellipse;whiteSpace=wrap;html=1;strokeColor=default;" parent="1" vertex="1">
          <mxGeometry x="387" y="180" width="77" height="40" as="geometry" />
        </mxCell>
        <mxCell id="raIuA8PvxwPbPQZz9bVx-17" value="&lt;font color=&quot;#006600&quot;&gt;Commit&lt;/font&gt;" style="ellipse;whiteSpace=wrap;html=1;strokeColor=#00CC00;" parent="1" vertex="1">
          <mxGeometry x="475" y="265" width="77" height="40" as="geometry" />
        </mxCell>
        <mxCell id="raIuA8PvxwPbPQZz9bVx-18" style="edgeStyle=orthogonalEdgeStyle;rounded=0;orthogonalLoop=1;jettySize=auto;html=1;curved=1;exitX=1;exitY=1;exitDx=0;exitDy=0;entryX=0.5;entryY=0;entryDx=0;entryDy=0;" parent="1" source="raIuA8PvxwPbPQZz9bVx-14" target="Em1KcYujY5I7i_vQvYqN-1" edge="1">
          <mxGeometry relative="1" as="geometry">
            <Array as="points">
              <mxPoint x="514" y="119" />
              <mxPoint x="514" y="180" />
            </Array>
            <mxPoint x="509" y="160" as="targetPoint" />
            <mxPoint x="449" y="40" as="sourcePoint" />
          </mxGeometry>
        </mxCell>
        <mxCell id="raIuA8PvxwPbPQZz9bVx-19" value="&lt;b&gt;prepare_write&lt;/b&gt;&lt;br&gt;&lt;u&gt;client: WtxnPrep&lt;/u&gt;" style="edgeLabel;html=1;align=center;verticalAlign=middle;resizable=0;points=[];" parent="raIuA8PvxwPbPQZz9bVx-18" vertex="1" connectable="0">
          <mxGeometry x="-0.1652" y="-5" relative="1" as="geometry">
            <mxPoint x="5" y="15" as="offset" />
          </mxGeometry>
        </mxCell>
        <mxCell id="raIuA8PvxwPbPQZz9bVx-20" value="&lt;b&gt;&lt;font style=&quot;font-size: 17px;&quot; face=&quot;Times New Roman&quot;&gt;(a)&lt;/font&gt;&lt;/b&gt;" style="text;html=1;align=center;verticalAlign=middle;resizable=0;points=[];autosize=1;strokeColor=none;fillColor=none;" parent="1" vertex="1">
          <mxGeometry x="70" y="270" width="40" height="30" as="geometry" />
        </mxCell>
        <mxCell id="raIuA8PvxwPbPQZz9bVx-21" value="&lt;b&gt;&lt;font style=&quot;font-size: 17px;&quot; face=&quot;Times New Roman&quot;&gt;(b)&lt;/font&gt;&lt;/b&gt;" style="text;html=1;align=center;verticalAlign=middle;resizable=0;points=[];autosize=1;strokeColor=none;fillColor=none;" parent="1" vertex="1">
          <mxGeometry x="349" y="270" width="40" height="30" as="geometry" />
        </mxCell>
        <mxCell id="Em1KcYujY5I7i_vQvYqN-1" value="Prep" style="ellipse;whiteSpace=wrap;html=1;strokeColor=default;" parent="1" vertex="1">
          <mxGeometry x="475" y="180" width="77" height="40" as="geometry" />
        </mxCell>
      </root>
    </mxGraphModel>
  </diagram>
  <diagram id="K9M1CZR97765x6AsLu4Y" name="tapir">
    <mxGraphModel dx="588" dy="413" grid="1" gridSize="10" guides="1" tooltips="1" connect="1" arrows="1" fold="1" page="1" pageScale="1" pageWidth="850" pageHeight="1100" math="0" shadow="0">
      <root>
        <mxCell id="0" />
        <mxCell id="1" parent="0" />
        <mxCell id="7SvXZm0cPjscOxd9vyi3-1" style="edgeStyle=orthogonalEdgeStyle;rounded=0;orthogonalLoop=1;jettySize=auto;html=1;exitX=0.5;exitY=1;exitDx=0;exitDy=0;entryX=0.5;entryY=0;entryDx=0;entryDy=0;" parent="1" source="7SvXZm0cPjscOxd9vyi3-3" target="7SvXZm0cPjscOxd9vyi3-8" edge="1">
          <mxGeometry relative="1" as="geometry">
            <Array as="points">
              <mxPoint x="160" y="111" />
            </Array>
          </mxGeometry>
        </mxCell>
        <mxCell id="7SvXZm0cPjscOxd9vyi3-2" value="&lt;font color=&quot;#ff9933&quot;&gt;cl_issue&amp;nbsp;&lt;/font&gt;&lt;span style=&quot;font-size: 8px; color: rgb(255, 153, 51);&quot;&gt;(r_keys, {}, w_keys)&lt;/span&gt;" style="edgeLabel;html=1;align=center;verticalAlign=middle;resizable=0;points=[];" parent="7SvXZm0cPjscOxd9vyi3-1" vertex="1" connectable="0">
          <mxGeometry x="-0.2533" relative="1" as="geometry">
            <mxPoint x="1" y="-11" as="offset" />
          </mxGeometry>
        </mxCell>
        <mxCell id="7SvXZm0cPjscOxd9vyi3-3" value="cl_init" style="ellipse;whiteSpace=wrap;html=1;" parent="1" vertex="1">
          <mxGeometry x="120" y="20" width="80" height="40" as="geometry" />
        </mxCell>
        <mxCell id="7SvXZm0cPjscOxd9vyi3-4" value="&lt;u&gt;&lt;font style=&quot;font-size: 10px;&quot; color=&quot;#006600&quot;&gt;&lt;b&gt;&lt;br&gt;&lt;/b&gt;&lt;/font&gt;&lt;/u&gt;" style="rounded=0;orthogonalLoop=1;jettySize=auto;html=1;entryX=0.5;entryY=0;entryDx=0;entryDy=0;exitX=0;exitY=1;exitDx=0;exitDy=0;" parent="1" source="D4o4MrowqHXQX_dL4U2l-8" target="7SvXZm0cPjscOxd9vyi3-11" edge="1">
          <mxGeometry x="0.0476" y="-20" relative="1" as="geometry">
            <mxPoint x="124.76105113334972" y="270.0026793601919" as="sourcePoint" />
            <mxPoint x="208" y="362.96" as="targetPoint" />
            <mxPoint as="offset" />
          </mxGeometry>
        </mxCell>
        <mxCell id="7SvXZm0cPjscOxd9vyi3-5" value="&lt;font color=&quot;#ff9933&quot;&gt;cl_commit&lt;/font&gt;&lt;div&gt;&lt;u&gt;&lt;font style=&quot;font-size: 10px;&quot; color=&quot;#006600&quot;&gt;All KMs: prepared&lt;/font&gt;&lt;/u&gt;&lt;br&gt;&lt;/div&gt;" style="edgeLabel;html=1;align=center;verticalAlign=middle;resizable=0;points=[];" parent="7SvXZm0cPjscOxd9vyi3-4" vertex="1" connectable="0">
          <mxGeometry x="-0.2553" y="1" relative="1" as="geometry">
            <mxPoint x="-10" y="6" as="offset" />
          </mxGeometry>
        </mxCell>
        <mxCell id="7SvXZm0cPjscOxd9vyi3-6" value="" style="edgeStyle=none;rounded=0;orthogonalLoop=1;jettySize=auto;html=1;entryX=0.5;entryY=0;entryDx=0;entryDy=0;exitX=1;exitY=1;exitDx=0;exitDy=0;" parent="1" source="D4o4MrowqHXQX_dL4U2l-8" target="7SvXZm0cPjscOxd9vyi3-14" edge="1">
          <mxGeometry x="0.1045" y="20" relative="1" as="geometry">
            <mxPoint as="offset" />
            <mxPoint x="412" y="412.96" as="targetPoint" />
            <mxPoint x="195.23894886665016" y="270.0026793601919" as="sourcePoint" />
          </mxGeometry>
        </mxCell>
        <mxCell id="7SvXZm0cPjscOxd9vyi3-7" value="&lt;font color=&quot;#ff9933&quot;&gt;cl_abort&lt;/font&gt;&lt;div&gt;&lt;u&gt;&lt;font style=&quot;font-size: 10px;&quot; color=&quot;#990000&quot;&gt;Some KM: aborted&lt;/font&gt;&lt;/u&gt;&lt;/div&gt;" style="edgeLabel;html=1;align=center;verticalAlign=middle;resizable=0;points=[];" parent="7SvXZm0cPjscOxd9vyi3-6" vertex="1" connectable="0">
          <mxGeometry x="-0.2613" y="2" relative="1" as="geometry">
            <mxPoint x="7" y="7" as="offset" />
          </mxGeometry>
        </mxCell>
        <mxCell id="D4o4MrowqHXQX_dL4U2l-9" value="" style="edgeStyle=orthogonalEdgeStyle;rounded=0;orthogonalLoop=1;jettySize=auto;html=1;" edge="1" parent="1" source="7SvXZm0cPjscOxd9vyi3-8" target="D4o4MrowqHXQX_dL4U2l-8">
          <mxGeometry relative="1" as="geometry" />
        </mxCell>
        <mxCell id="D4o4MrowqHXQX_dL4U2l-12" value="&lt;font color=&quot;#ff9933&quot;&gt;cl_prepare&amp;nbsp;&lt;/font&gt;&lt;span style=&quot;font-size: 8px; color: rgb(255, 153, 51);&quot;&gt;(ts, r_map, w_map)&lt;/span&gt;&lt;div style=&quot;line-height: 60%;&quot;&gt;&lt;span style=&quot;font-size: 8px;&quot;&gt;&lt;u&gt;All KM: read&lt;/u&gt;&lt;/span&gt;&lt;/div&gt;&lt;div style=&quot;line-height: 60%;&quot;&gt;&lt;span style=&quot;font-size: 8px;&quot;&gt;dom x_map = x_keys for x = {r, w}&lt;/span&gt;&lt;/div&gt;" style="edgeLabel;html=1;align=center;verticalAlign=middle;resizable=0;points=[];" vertex="1" connectable="0" parent="D4o4MrowqHXQX_dL4U2l-9">
          <mxGeometry x="0.2459" relative="1" as="geometry">
            <mxPoint y="-12" as="offset" />
          </mxGeometry>
        </mxCell>
        <mxCell id="7SvXZm0cPjscOxd9vyi3-8" value="&lt;font style=&quot;font-size: 13px;&quot; color=&quot;#004c99&quot;&gt;cl_reading&lt;/font&gt;&lt;div style=&quot;line-height: 30%;&quot;&gt;&lt;font style=&quot;font-size: 7px;&quot; color=&quot;#004c99&quot;&gt;r_keys, r_map, w_keys&lt;/font&gt;&lt;/div&gt;" style="ellipse;whiteSpace=wrap;html=1;strokeColor=#004C99;" parent="1" vertex="1">
          <mxGeometry x="110" y="120" width="100" height="43" as="geometry" />
        </mxCell>
        <mxCell id="7SvXZm0cPjscOxd9vyi3-9" value="&lt;span style=&quot;font-size: 10px;&quot;&gt;&lt;u style=&quot;&quot;&gt;All KMs:&lt;br&gt;committed&lt;/u&gt;&lt;br&gt;&lt;/span&gt;" style="edgeStyle=orthogonalEdgeStyle;curved=1;rounded=0;orthogonalLoop=1;jettySize=auto;html=1;entryX=0;entryY=0.5;entryDx=0;entryDy=0;exitX=0;exitY=0.5;exitDx=0;exitDy=0;" parent="1" source="7SvXZm0cPjscOxd9vyi3-11" target="7SvXZm0cPjscOxd9vyi3-3" edge="1">
          <mxGeometry x="-0.3964" relative="1" as="geometry">
            <Array as="points">
              <mxPoint x="60" y="328" />
              <mxPoint x="60" y="40" />
            </Array>
            <mxPoint x="135" y="120" as="sourcePoint" />
            <mxPoint as="offset" />
          </mxGeometry>
        </mxCell>
        <mxCell id="7SvXZm0cPjscOxd9vyi3-10" value="&lt;font color=&quot;#ff9933&quot;&gt;cl_ready_c&lt;/font&gt;" style="edgeLabel;html=1;align=center;verticalAlign=middle;resizable=0;points=[];" parent="7SvXZm0cPjscOxd9vyi3-9" vertex="1" connectable="0">
          <mxGeometry x="-0.5741" y="-7" relative="1" as="geometry">
            <mxPoint x="-6" y="-52" as="offset" />
          </mxGeometry>
        </mxCell>
        <mxCell id="7SvXZm0cPjscOxd9vyi3-11" value="&lt;font color=&quot;#006600&quot; style=&quot;font-size: 13px;&quot;&gt;cl_committed&lt;/font&gt;&lt;div style=&quot;line-height: 30%;&quot;&gt;&lt;span style=&quot;font-size: 7px;&quot;&gt;&lt;font color=&quot;#006600&quot;&gt;ts, r_map, w_map&lt;/font&gt;&lt;/span&gt;&lt;font style=&quot;font-size: 13px;&quot; color=&quot;#006600&quot;&gt;&lt;br&gt;&lt;/font&gt;&lt;/div&gt;" style="ellipse;whiteSpace=wrap;html=1;strokeColor=#00CC00;" parent="1" vertex="1">
          <mxGeometry x="70" y="307.96" width="90" height="40" as="geometry" />
        </mxCell>
        <mxCell id="7SvXZm0cPjscOxd9vyi3-14" value="&lt;font style=&quot;font-size: 13px;&quot; color=&quot;#990000&quot;&gt;cl_aborted&lt;/font&gt;" style="ellipse;whiteSpace=wrap;html=1;strokeColor=#FF3333;" parent="1" vertex="1">
          <mxGeometry x="170" y="307.96" width="80" height="40" as="geometry" />
        </mxCell>
        <mxCell id="7SvXZm0cPjscOxd9vyi3-18" style="edgeStyle=orthogonalEdgeStyle;curved=1;rounded=0;orthogonalLoop=1;jettySize=auto;html=1;exitX=0;exitY=0.5;exitDx=0;exitDy=0;entryX=0;entryY=1;entryDx=0;entryDy=0;" parent="1" source="7SvXZm0cPjscOxd9vyi3-21" target="7SvXZm0cPjscOxd9vyi3-21" edge="1">
          <mxGeometry relative="1" as="geometry">
            <mxPoint x="400" y="59.709999999999994" as="targetPoint" />
          </mxGeometry>
        </mxCell>
        <mxCell id="7SvXZm0cPjscOxd9vyi3-19" value="" style="rounded=0;orthogonalLoop=1;jettySize=auto;html=1;exitX=0;exitY=1;exitDx=0;exitDy=0;entryX=0.5;entryY=0;entryDx=0;entryDy=0;" parent="1" source="7SvXZm0cPjscOxd9vyi3-21" target="7SvXZm0cPjscOxd9vyi3-26" edge="1">
          <mxGeometry y="10" relative="1" as="geometry">
            <mxPoint x="560" y="-35.290000000000006" as="sourcePoint" />
            <mxPoint x="465" y="108" as="targetPoint" />
            <mxPoint as="offset" />
          </mxGeometry>
        </mxCell>
        <mxCell id="7SvXZm0cPjscOxd9vyi3-20" value="&lt;font color=&quot;#ff9933&quot;&gt;prepare&lt;/font&gt;&lt;div&gt;&lt;u style=&quot;color: rgb(0, 76, 153);&quot;&gt;cl_prepared&lt;/u&gt;&lt;font color=&quot;#ff9933&quot;&gt;&lt;br&gt;&lt;/font&gt;&lt;/div&gt;" style="edgeLabel;html=1;align=center;verticalAlign=middle;resizable=0;points=[];" parent="7SvXZm0cPjscOxd9vyi3-19" vertex="1" connectable="0">
          <mxGeometry x="-0.1556" y="-3" relative="1" as="geometry">
            <mxPoint x="7" y="3" as="offset" />
          </mxGeometry>
        </mxCell>
        <mxCell id="D4o4MrowqHXQX_dL4U2l-2" style="rounded=0;orthogonalLoop=1;jettySize=auto;html=1;exitX=1;exitY=1;exitDx=0;exitDy=0;entryX=0.5;entryY=0;entryDx=0;entryDy=0;" edge="1" parent="1" source="7SvXZm0cPjscOxd9vyi3-21" target="D4o4MrowqHXQX_dL4U2l-3">
          <mxGeometry relative="1" as="geometry">
            <mxPoint x="540" y="280" as="targetPoint" />
          </mxGeometry>
        </mxCell>
        <mxCell id="7SvXZm0cPjscOxd9vyi3-21" value="&lt;p style=&quot;line-height: 0%;&quot;&gt;&lt;span style=&quot;font-size: 13px;&quot;&gt;read&lt;/span&gt;&lt;/p&gt;&lt;p style=&quot;line-height: 0%; font-size: 7px;&quot;&gt;r_vto&lt;/p&gt;&lt;p&gt;&lt;/p&gt;" style="ellipse;whiteSpace=wrap;html=1;" parent="1" vertex="1">
          <mxGeometry x="420" y="123" width="70" height="40" as="geometry" />
        </mxCell>
        <mxCell id="7SvXZm0cPjscOxd9vyi3-25" value="&lt;font style=&quot;font-size: 13px;&quot;&gt;committed&lt;/font&gt;&lt;div style=&quot;font-size: 7px; line-height: 30%;&quot;&gt;&lt;font style=&quot;font-size: 7px;&quot;&gt;ts, r_vto, w_vo, rs&lt;/font&gt;&lt;/div&gt;" style="ellipse;whiteSpace=wrap;html=1;strokeColor=#000000;" parent="1" vertex="1">
          <mxGeometry x="361" y="307.96" width="70" height="40" as="geometry" />
        </mxCell>
        <mxCell id="dHjF9Aj3XJg7hUCUOBGu-13" style="edgeStyle=orthogonalEdgeStyle;rounded=0;orthogonalLoop=1;jettySize=auto;html=1;exitX=0.5;exitY=1;exitDx=0;exitDy=0;curved=1;entryX=0.5;entryY=0;entryDx=0;entryDy=0;" edge="1" parent="1" source="7SvXZm0cPjscOxd9vyi3-26" target="7SvXZm0cPjscOxd9vyi3-25">
          <mxGeometry relative="1" as="geometry">
            <mxPoint x="400" y="280" as="targetPoint" />
          </mxGeometry>
        </mxCell>
        <mxCell id="dHjF9Aj3XJg7hUCUOBGu-14" value="&lt;font color=&quot;#ff9933&quot;&gt;commit&lt;/font&gt;&lt;br&gt;&lt;font style=&quot;text-decoration-line: underline;&quot; color=&quot;#006600&quot;&gt;cl_committed&lt;/font&gt;" style="edgeLabel;html=1;align=center;verticalAlign=middle;resizable=0;points=[];" vertex="1" connectable="0" parent="dHjF9Aj3XJg7hUCUOBGu-13">
          <mxGeometry x="-0.2585" y="1" relative="1" as="geometry">
            <mxPoint x="-1" y="1" as="offset" />
          </mxGeometry>
        </mxCell>
        <mxCell id="7SvXZm0cPjscOxd9vyi3-26" value="&lt;font style=&quot;font-size: 13px;&quot; color=&quot;#006600&quot;&gt;prepared&lt;/font&gt;&lt;div style=&quot;font-size: 7px; line-height: 30%;&quot;&gt;&lt;font style=&quot;font-size: 7px;&quot; color=&quot;#006600&quot;&gt;ts, r_vto, w_vo&lt;/font&gt;&lt;/div&gt;" style="ellipse;whiteSpace=wrap;html=1;strokeColor=#00CC00;" parent="1" vertex="1">
          <mxGeometry x="361" y="211.49999999999994" width="70" height="40" as="geometry" />
        </mxCell>
        <mxCell id="7SvXZm0cPjscOxd9vyi3-30" value="&lt;font style=&quot;&quot;&gt;&lt;font style=&quot;&quot; color=&quot;#ff9933&quot;&gt;abort&lt;/font&gt;&lt;br&gt;&lt;u style=&quot;&quot;&gt;&lt;font color=&quot;#990000&quot;&gt;cl_aborted&lt;/font&gt;&lt;/u&gt;&lt;/font&gt;" style="rounded=0;orthogonalLoop=1;jettySize=auto;html=1;exitX=1;exitY=1;exitDx=0;exitDy=0;entryX=0.5;entryY=0;entryDx=0;entryDy=0;" parent="1" source="7SvXZm0cPjscOxd9vyi3-26" target="D4o4MrowqHXQX_dL4U2l-3" edge="1">
          <mxGeometry x="0.2744" y="15" relative="1" as="geometry">
            <mxPoint as="offset" />
            <mxPoint x="403.88873734152924" y="204.1421356237309" as="sourcePoint" />
            <mxPoint x="639.14" y="314.71" as="targetPoint" />
          </mxGeometry>
        </mxCell>
        <mxCell id="7SvXZm0cPjscOxd9vyi3-31" value="&lt;b&gt;a)&lt;/b&gt;" style="text;html=1;align=center;verticalAlign=middle;resizable=0;points=[];autosize=1;strokeColor=none;fillColor=none;" parent="1" vertex="1">
          <mxGeometry x="40" y="319.71" width="30" height="30" as="geometry" />
        </mxCell>
        <mxCell id="7SvXZm0cPjscOxd9vyi3-32" value="&lt;b&gt;b)&lt;/b&gt;" style="text;html=1;align=center;verticalAlign=middle;resizable=0;points=[];autosize=1;strokeColor=none;fillColor=none;" parent="1" vertex="1">
          <mxGeometry x="280" y="319.71" width="30" height="30" as="geometry" />
        </mxCell>
        <mxCell id="dHjF9Aj3XJg7hUCUOBGu-9" style="edgeStyle=orthogonalEdgeStyle;rounded=0;orthogonalLoop=1;jettySize=auto;html=1;exitX=0.604;exitY=0.016;exitDx=0;exitDy=0;entryX=1;entryY=0;entryDx=0;entryDy=0;curved=1;exitPerimeter=0;" edge="1" parent="1" source="7SvXZm0cPjscOxd9vyi3-8" target="7SvXZm0cPjscOxd9vyi3-8">
          <mxGeometry relative="1" as="geometry">
            <Array as="points">
              <mxPoint x="170" y="119" />
              <mxPoint x="170" y="119" />
              <mxPoint x="170" y="100" />
              <mxPoint x="195" y="100" />
            </Array>
          </mxGeometry>
        </mxCell>
        <mxCell id="dHjF9Aj3XJg7hUCUOBGu-10" value="&lt;span style=&quot;color: rgb(255, 153, 51);&quot;&gt;&lt;font style=&quot;font-size: 11px;&quot;&gt;cl_read_resp&lt;/font&gt;&lt;/span&gt;&lt;div&gt;&lt;u style=&quot;&quot;&gt;&lt;font style=&quot;font-size: 10px;&quot;&gt;KM: read Some (v,t)&lt;/font&gt;&lt;/u&gt;&lt;span style=&quot;color: rgb(255, 153, 51);&quot;&gt;&lt;br&gt;&lt;/span&gt;&lt;/div&gt;" style="edgeLabel;html=1;align=center;verticalAlign=middle;resizable=0;points=[];" vertex="1" connectable="0" parent="dHjF9Aj3XJg7hUCUOBGu-9">
          <mxGeometry x="-0.3092" y="3" relative="1" as="geometry">
            <mxPoint x="35" as="offset" />
          </mxGeometry>
        </mxCell>
        <mxCell id="D4o4MrowqHXQX_dL4U2l-3" value="&lt;font style=&quot;font-size: 13px;&quot;&gt;aborted&lt;/font&gt;" style="ellipse;whiteSpace=wrap;html=1;strokeColor=#000000;" vertex="1" parent="1">
          <mxGeometry x="480" y="307.96" width="70" height="40" as="geometry" />
        </mxCell>
        <mxCell id="D4o4MrowqHXQX_dL4U2l-7" style="edgeStyle=orthogonalEdgeStyle;rounded=0;orthogonalLoop=1;jettySize=auto;html=1;exitX=0.5;exitY=1;exitDx=0;exitDy=0;entryX=0.5;entryY=0;entryDx=0;entryDy=0;" edge="1" parent="1" source="D4o4MrowqHXQX_dL4U2l-5" target="7SvXZm0cPjscOxd9vyi3-21">
          <mxGeometry relative="1" as="geometry" />
        </mxCell>
        <mxCell id="NB-OEbRbdBVgOyTMQUA7-10" value="&lt;font color=&quot;#ff9933&quot;&gt;read_resp&lt;/font&gt;&lt;br&gt;&lt;div&gt;&lt;u style=&quot;color: rgb(0, 76, 153);&quot;&gt;cl_reading&lt;/u&gt;&lt;/div&gt;" style="edgeLabel;html=1;align=center;verticalAlign=middle;resizable=0;points=[];" vertex="1" connectable="0" parent="D4o4MrowqHXQX_dL4U2l-7">
          <mxGeometry x="-0.2459" y="2" relative="1" as="geometry">
            <mxPoint as="offset" />
          </mxGeometry>
        </mxCell>
        <mxCell id="D4o4MrowqHXQX_dL4U2l-5" value="&lt;font style=&quot;font-size: 13px;&quot;&gt;idle&lt;/font&gt;" style="ellipse;whiteSpace=wrap;html=1;" vertex="1" parent="1">
          <mxGeometry x="420" y="20.000000000000007" width="70" height="40" as="geometry" />
        </mxCell>
        <mxCell id="D4o4MrowqHXQX_dL4U2l-8" value="&lt;font style=&quot;font-size: 13px;&quot; color=&quot;#004c99&quot;&gt;cl_prepared&lt;/font&gt;&lt;div style=&quot;line-height: 30%;&quot;&gt;&lt;font style=&quot;font-size: 7px;&quot; color=&quot;#004c99&quot;&gt;ts, r_map, w_map&lt;/font&gt;&lt;/div&gt;" style="ellipse;whiteSpace=wrap;html=1;strokeColor=#004C99;" vertex="1" parent="1">
          <mxGeometry x="110" y="210" width="100" height="43" as="geometry" />
        </mxCell>
        <mxCell id="NB-OEbRbdBVgOyTMQUA7-2" value="Write k1 v1&lt;div&gt;Read k1 ---&amp;gt; v1&lt;/div&gt;&lt;div&gt;Read k2 ---&amp;gt; v0&lt;/div&gt;&lt;div&gt;Write k2 v2&lt;/div&gt;" style="text;html=1;align=center;verticalAlign=middle;resizable=0;points=[];autosize=1;strokeColor=none;fillColor=none;" vertex="1" parent="1">
          <mxGeometry x="75" y="410" width="110" height="70" as="geometry" />
        </mxCell>
        <mxCell id="NB-OEbRbdBVgOyTMQUA7-6" value="Write k1 v1&lt;div&gt;Read k2&lt;/div&gt;&lt;div&gt;Write k2 v2&lt;/div&gt;" style="text;html=1;align=center;verticalAlign=middle;resizable=0;points=[];autosize=1;strokeColor=none;fillColor=none;" vertex="1" parent="1">
          <mxGeometry x="285" y="410" width="80" height="60" as="geometry" />
        </mxCell>
        <mxCell id="NB-OEbRbdBVgOyTMQUA7-7" value="txn&lt;div&gt;program:&lt;/div&gt;" style="text;html=1;align=center;verticalAlign=middle;resizable=0;points=[];autosize=1;strokeColor=none;fillColor=none;" vertex="1" parent="1">
          <mxGeometry x="20" y="412" width="70" height="40" as="geometry" />
        </mxCell>
        <mxCell id="NB-OEbRbdBVgOyTMQUA7-8" value="txn&lt;div&gt;protocol:&lt;/div&gt;" style="text;html=1;align=center;verticalAlign=middle;resizable=0;points=[];autosize=1;strokeColor=none;fillColor=none;" vertex="1" parent="1">
          <mxGeometry x="220" y="410" width="70" height="40" as="geometry" />
        </mxCell>
        <mxCell id="NB-OEbRbdBVgOyTMQUA7-11" value="==&amp;gt;" style="text;html=1;align=center;verticalAlign=middle;resizable=0;points=[];autosize=1;strokeColor=none;fillColor=none;" vertex="1" parent="1">
          <mxGeometry x="187" y="428" width="40" height="30" as="geometry" />
        </mxCell>
        <mxCell id="7SvXZm0cPjscOxd9vyi3-12" value="&lt;span style=&quot;font-size: 10px;&quot;&gt;&lt;u style=&quot;&quot;&gt;All KMs:&lt;br&gt;aborted&lt;/u&gt;&lt;br&gt;&lt;/span&gt;" style="edgeStyle=orthogonalEdgeStyle;curved=1;rounded=0;orthogonalLoop=1;jettySize=auto;html=1;entryX=1;entryY=0.5;entryDx=0;entryDy=0;exitX=1;exitY=0.5;exitDx=0;exitDy=0;" parent="1" source="7SvXZm0cPjscOxd9vyi3-14" target="7SvXZm0cPjscOxd9vyi3-3" edge="1">
          <mxGeometry x="-0.3964" relative="1" as="geometry">
            <Array as="points">
              <mxPoint x="260" y="328" />
              <mxPoint x="260" y="40" />
            </Array>
            <mxPoint x="482" y="160" as="sourcePoint" />
            <mxPoint as="offset" />
          </mxGeometry>
        </mxCell>
        <mxCell id="7SvXZm0cPjscOxd9vyi3-13" value="&lt;font color=&quot;#ff9933&quot;&gt;cl_ready_a&lt;/font&gt;" style="edgeLabel;html=1;align=center;verticalAlign=middle;resizable=0;points=[];" parent="7SvXZm0cPjscOxd9vyi3-12" vertex="1" connectable="0">
          <mxGeometry x="-0.4885" y="11" relative="1" as="geometry">
            <mxPoint x="11" y="-37" as="offset" />
          </mxGeometry>
        </mxCell>
      </root>
    </mxGraphModel>
  </diagram>
</mxfile>
